<?xml version="1.0" encoding="utf-8"?>
<!-- Generator: Adobe Illustrator 16.0.4, SVG Export Plug-In . SVG Version: 6.00 Build 0)  -->
<!DOCTYPE svg PUBLIC "-//W3C//DTD SVG 1.1//EN" "http://www.w3.org/Graphics/SVG/1.1/DTD/svg11.dtd">
<svg version="1.1" id="Layer_1" xmlns="http://www.w3.org/2000/svg" xmlns:xlink="http://www.w3.org/1999/xlink" x="0px" y="0px"
	 width="172px" height="20px" viewBox="0 0 172 20" enable-background="new 0 0 172 20" xml:space="preserve">
<g>
	<g>
		<g>
			<path d="M64.464,8.525c2.762,0.673,4.199,1.662,4.199,3.846c0,2.465-1.923,3.919-4.666,3.919c-1.998,0-3.883-0.69-5.45-2.09
				l1.381-1.642c1.251,1.082,2.501,1.697,4.125,1.697c1.419,0,2.314-0.653,2.314-1.66c0-0.952-0.522-1.456-2.949-2.016
				c-2.78-0.673-4.349-1.494-4.349-3.92c0-2.277,1.866-3.808,4.462-3.808c1.903,0,3.414,0.578,4.739,1.643L67.039,6.23
				c-1.176-0.877-2.352-1.344-3.546-1.344c-1.344,0-2.127,0.69-2.127,1.568C61.366,7.481,61.963,7.93,64.464,8.525z"/>
			<path d="M83.722,11.905h-2.594v4.198h-2.295V3.039h5.15c3.042,0,4.966,1.718,4.966,4.387
				C88.949,10.375,86.598,11.905,83.722,11.905z M83.797,5.13h-2.669v4.703h2.669c1.736,0,2.818-0.952,2.818-2.352
				C86.615,5.933,85.515,5.13,83.797,5.13z"/>
			<path d="M104.997,16.328c-4.014,0-6.812-3.041-6.812-6.738c0-3.695,2.837-6.775,6.85-6.775s6.812,3.043,6.812,6.739
				C111.847,13.247,109.009,16.328,104.997,16.328z M104.997,4.925c-2.595,0-4.405,2.071-4.405,4.629
				c0,2.557,1.849,4.665,4.442,4.665c2.595,0,4.404-2.07,4.404-4.629C109.438,7.033,107.591,4.925,104.997,4.925z"/>
			<path d="M130.47,16.104l-3.21-4.554h-2.874v4.554h-2.296V3.039h5.823c3.005,0,4.853,1.586,4.853,4.144
				c0,2.165-1.288,3.472-3.117,3.976l3.527,4.945H130.47z M127.727,5.13h-3.341v4.386h3.359c1.643,0,2.688-0.859,2.688-2.202
				C130.433,5.877,129.426,5.13,127.727,5.13z"/>
			<path d="M148.512,16.104h-2.314V5.167h-4.143V3.039h10.601v2.128h-4.144V16.104z"/>
			<path d="M167.301,8.525c2.763,0.673,4.2,1.662,4.2,3.846c0,2.465-1.923,3.919-4.665,3.919c-1.998,0-3.883-0.69-5.451-2.09
				l1.381-1.642c1.251,1.082,2.501,1.697,4.125,1.697c1.418,0,2.314-0.653,2.314-1.66c0-0.952-0.522-1.456-2.948-2.016
				c-2.781-0.673-4.35-1.494-4.35-3.92c0-2.277,1.866-3.808,4.461-3.808c1.903,0,3.415,0.578,4.741,1.643l-1.232,1.735
				c-1.177-0.877-2.351-1.344-3.547-1.344c-1.344,0-2.126,0.69-2.126,1.568C164.204,7.481,164.8,7.93,167.301,8.525z"/>
		</g>
		<path d="M41.825,10.716V8.428h5.458c-0.507-1.912-2.252-3.326-4.322-3.326c-2.464,0-4.469,2.006-4.469,4.47
			c0,2.465,2.005,4.47,4.469,4.47c1.116,0,2.136-0.413,2.92-1.091h2.926c-1.171,2.017-3.351,3.378-5.846,3.378
			c-3.725,0-6.756-3.031-6.756-6.757s3.031-6.757,6.756-6.757c3.727,0,6.758,3.031,6.758,6.757c0,0.39-0.035,0.772-0.1,1.145H41.825
			z"/>
	</g>
	<g>
		<path d="M10.549,3.97C9.431,3.955,9.15,4.927,9.21,5.246c0.14,0.759,2.536,1.032,3.793,1.381c2.496,0.698,2.835,1.974,2.355,3.645
			l-0.019,0.062c-0.76,2.715-2.915,4.335-7.759,4.35c-2.571,0.014-4.509-0.455-5.787-1.364l0.96-3.487h5.184
			c-0.079,0.334-0.178,0.652-0.258,0.972c-0.099,0.335-0.298,1.063,0.813,1.078c0.397,0.016,1.057-0.166,1.316-1.003
			c0.359-1.184-0.42-1.396-2.566-1.807C5.17,8.663,2.973,8.176,3.812,5.155C4.57,2.44,6.827,1.169,11.066,1.169
			c2.497,0,4.312,0.349,5.931,1.362l-0.859,3.063h-4.97l0.059-0.243C11.506,4.349,11.326,3.985,10.549,3.97z"/>
		<polygon points="13.365,17.975 14.031,15.646 1.164,15.646 0.499,17.975 		"/>
	</g>
	<rect x="26.423" y="0.05" width="0.524" height="19.9"/>
</g>
</svg>
